<?xml version="1.0" encoding="UTF-8"?>
<svg id="Calque_1" data-name="Calque 1" xmlns="http://www.w3.org/2000/svg" viewBox="0 0 1061.96 1061.96">
  <defs>
    <style>
      .cls-1 {
        fill: #24242e;
      }

      .cls-2 {
        fill: #6608fa;
      }
    </style>
  </defs>
  <circle class="cls-2" cx="103.06" cy="523.54" r="103.06"/>
  <path class="cls-1" d="M814.1,247.87c-24.24-24.24-57.54-33.87-89-28.92h0c-69.68,11.04-110.8-30.09-99.77-99.76,4.96-31.45-4.68-64.76-28.92-89-40.25-40.25-105.5-40.25-145.75,0s-40.25,105.5,0,145.75c24.24,24.24,57.54,33.87,89,28.92h0c69.68-11.04,110.8,30.09,99.77,99.76-4.96,31.45,4.68,64.76,28.92,89,40.25,40.25,105.5,40.25,145.75,0s40.25-105.5,0-145.75Z"/>
  <path class="cls-1" d="M821.54,675.79c-40.25-40.25-105.5-40.25-145.75,0-24.24,24.24-33.87,57.54-28.92,89h0c10.21,64.48-27.85,102.54-92.33,92.33h0c-31.45-4.96-64.76,4.68-89,28.92-40.25,40.25-40.25,105.5,0,145.75,40.25,40.25,105.5,40.25,145.75,0,24.24-24.24,33.87-57.54,28.92-89h0c-10.21-64.48,27.85-102.54,92.33-92.33h0c31.45,4.96,64.76-4.68,89-28.92,40.25-40.25,40.25-105.5,0-145.75Z"/>
  <path class="cls-2" d="M1031.78,465.55c-39.83-39.83-104.13-40.24-144.47-1.25h0c-74.13,71.59-210.6,69.21-282.19-4.92h0c-.42-.42-.83-.85-1.26-1.28-40.25-40.25-105.5-40.25-145.75,0-40.25,40.25-40.25,105.5,0,145.75s104.13,40.24,144.47,1.25h0c74.13-71.59,210.6-69.21,282.19,4.92h0c.42.42.83.85,1.26,1.28,40.25,40.25,105.5,40.25,145.75,0,40.25-40.25,40.25-105.5,0-145.75Z"/>
  <path class="cls-1" d="M393.62,668.35c-.43-.43-.86-.84-1.29-1.26h0c-74.13-71.6-76.5-208.06-4.91-282.19h-.01c38.99-40.34,38.58-104.65-1.25-144.47-40.25-40.25-105.5-40.25-145.75,0-40.25,40.25-40.25,105.5,0,145.75.43.43.86.84,1.29,1.26h-.01c74.13,71.6,76.5,208.06,4.91,282.19h0c-38.99,40.34-38.58,104.65,1.25,144.47,40.25,40.25,105.5,40.25,145.75,0s40.25-105.5,0-145.75Z"/>
</svg>