<?xml version="1.0" encoding="UTF-8"?>
<svg id="Calque_1" data-name="Calque 1" xmlns="http://www.w3.org/2000/svg" viewBox="0 0 960.28 212.34">
  <defs>
    <style>
      .cls-1 {
        fill: #6608f9;
      }

      .cls-2 {
        fill: #120c16;
      }
    </style>
  </defs>
  <rect class="cls-1" x="56.87" y="107.19" width="42.06" height="42.06"/>
  <rect class="cls-1" x="98.93" y="46.14" width="42.06" height="42.06"/>
  <rect class="cls-2" x="351.99" y="80.18" width="42.06" height="42.06"/>
  <rect class="cls-1" y="65.12" width="42.06" height="42.06"/>
  <polygon class="cls-2" points="606.47 29.74 576.73 0 505.82 70.91 434.91 0 405.16 29.74 476.08 100.65 405.16 171.57 434.91 201.31 505.82 130.4 576.73 201.31 606.47 171.57 535.56 100.65 606.47 29.74"/>
  <polygon class="cls-2" points="784.42 46.14 784.42 4.08 690.6 4.08 648.53 4.08 648.53 46.14 648.53 78.05 648.53 120.11 648.53 152.03 648.53 194.09 690.6 194.09 784.42 194.09 784.42 152.03 690.6 152.03 690.6 120.11 784.42 120.11 784.42 78.05 690.6 78.05 690.6 46.14 784.42 46.14"/>
  <polygon class="cls-2" points="868.54 152.03 868.54 4.08 826.48 4.08 826.48 152.03 826.48 194.09 868.54 194.09 960.28 194.09 960.28 152.03 868.54 152.03"/>
  <g>
    <rect class="cls-1" x="165.92" y="170.28" width="42.06" height="42.06"/>
    <path class="cls-1" d="M250.04,4.08h-84.12v82.12h42.06v-40.06h42.06c15.48,0,28.02,12.55,28.02,28.02v5.01c0,15.48-12.54,28.02-28.02,28.02h-84.12v42.06h84.12c39.21,0,71-31.79,71-71v-3.16c0-39.21-31.79-71-71-71Z"/>
  </g>
</svg>